<svg width="397" height="400" viewBox="0 0 397 400" fill="none" xmlns="http://www.w3.org/2000/svg">
<path d="M377.427 288.24H366.543C306.953 288.24 247.327 287.841 187.737 288.53C174.43 288.675 165.318 283.85 157.725 273.983C156.061 271.842 154.579 269.52 152.662 267.634C146.371 261.358 139.898 261.757 134.04 268.468C130.099 273.003 125.941 277.356 121.999 281.891C118.384 286.063 113.719 288.095 108.476 288.095C80.4887 288.24 52.5016 288.167 24.5145 288.203C20.7901 288.203 18.1867 286.934 16.668 283.379C10.7018 269.194 5.82021 254.647 2.92748 239.483C2.78285 238.684 3.28912 237.777 3.75918 236C7.12198 235.855 10.6294 235.528 14.1368 235.528C51.7784 235.528 89.3839 235.347 127.025 235.637C137.512 235.71 145.756 232.735 151.65 223.665C153.602 220.691 156.351 218.188 158.954 215.684C165.21 209.699 173.851 210.315 179.565 216.845C183.108 220.908 186.977 224.754 190.34 228.962C194.498 234.186 199.633 235.637 206.178 235.601C254.052 235.383 301.891 235.492 349.765 235.492C362.096 235.492 374.462 235.492 386.792 235.492C389.106 235.492 391.457 235.927 394.675 236.254C391.855 254.719 386.648 271.661 377.463 288.095L377.427 288.24Z" fill="black"/>
<path d="M0 184.521C1.15709 166.963 3.72439 150.529 10.8477 133.878H21.4785C77.4528 133.878 133.391 133.878 189.365 133.878C191.788 133.878 194.174 133.914 196.597 133.878C207.011 133.515 215.978 130.141 222.306 121.326C223.897 119.113 225.597 117.009 227.26 114.905C232.394 108.447 242.483 105.11 249.642 114.143C252.246 117.444 256.079 119.875 258.248 123.357C263.817 132.245 272.35 133.841 281.643 133.878C313.246 133.914 344.813 133.878 376.416 133.878C379.67 133.878 382.961 133.878 386.975 133.878C392.905 150.203 396.991 166.237 396.846 184.086C393.628 184.413 391.024 184.92 388.457 184.92C343.331 184.957 298.204 184.92 253.077 184.993C245.014 184.993 238.614 182.272 233.696 175.561C230.695 171.461 227.007 167.834 223.355 164.242C217.533 158.474 213.266 158.401 207.083 164.133C202.455 168.414 197.935 172.913 193.776 177.665C189.04 183.07 183.435 185.102 176.239 185.066C120.591 184.884 64.9055 184.957 9.25672 184.957C6.32783 184.957 3.39899 184.667 0.0361944 184.521H0Z" fill="black"/>
<path d="M357.615 81.5294C354.722 81.6382 351.793 81.8559 348.901 81.8922C340.765 81.9284 332.593 81.4205 324.529 82.0373C314.622 82.7991 307.896 78.6634 302.472 70.8637C299.905 67.1997 296.687 63.8984 293.396 60.8511C287.647 55.5183 283.489 55.5183 277.667 60.9599C273.292 65.0593 269.025 69.4126 265.265 74.0562C260.962 79.3164 255.972 82.001 249.029 82.001C181.918 81.8922 114.77 81.9284 47.6592 81.8922C45.0919 81.8922 42.4885 81.4931 39.5234 81.2754C62.3037 43.6192 118.061 4.403 183.509 0.44873C255.031 -3.86832 313.465 23.0135 358.23 78.9537L357.651 81.5294H357.615Z" fill="black"/>
<path d="M344.921 335.002C274.338 417.933 131.365 424.789 53.4424 336.526C61.7951 333.406 69.1354 329.052 74.487 322.051C76.1142 319.91 77.8136 317.77 79.5492 315.702C85.5878 308.483 93.0728 307.721 99.9068 314.142C104.029 318.024 107.609 322.559 111.188 327.021C116.142 333.188 122.325 335.147 130.172 335.147C197.572 334.929 264.973 335.002 332.41 335.002C335.953 335.002 339.497 335.002 344.921 335.002V335.002Z" fill="black"/>
</svg>
